{"title":"The Recruit - S02E10","uid":15896085,"size":498568433,"categoryP":"video","categoryS":"tv_shows","magnet":"?xt=urn:btih:f254ea087c9e2a6a55852f1db846b69d6e19c164&amp;dn=The+Recruit+-+S02E10&amp;tr=udp%3A%2F%2Ftracker.leechers-paradise.org%3A6969&amp;tr=udp%3A%2F%2Fzer0day.ch%3A1337&amp;tr=udp%3A%2F%2Fopen.demonii.com%3A1337&amp;tr=udp%3A%2F%2Ftracker.coppersurfer.tk%3A6969&amp;tr=udp%3A%2F%2Fexodus.desync.com%3A6969","seeders":13,"leechers":2,"uploader":"Bullrout","files":1,"time":1474804933,"description":"The Recruit - S02E10\r\n\r\nFormer AFL player and Coach, Mick Malthouse, joined by former Hawthorn champion and Fox Footy commentator Ben Dixon, Port Adelaide's world class fitness guru Darren Burgess, and accomplished sports administrator Leigh Russell have seen 15 Recruits from across the country put through their paces. Now the final three Recruits face the Judges and 18 AFL Reps at the Melbourne Crown, where Ryan 'Fitzy' Fitzgerald hosts the draft to announce the winner of an AFL club contract.\r\n\r\nComplete name : The Recruit - S02E10.mp4\r\nFormat : MPEG-4\r\nFormat profile : Base Media / Version 2\r\nCodec ID : mp42 (mp42/isom/avc1)\r\nFile size : 475 MiB\r\nDuration : 1 h 0 min\r\nOverall bit rate mode : Variable\r\nOverall bit rate : 1 105 kb/s\r\n\r\nVideo\r\nID : 2\r\nFormat : AVC\r\nFormat/Info : Advanced Video Codec\r\nFormat profile :   \r\nFormat settings, CABAC : Yes\r\nFormat settings, ReFrames : 3 frames\r\nCodec ID : avc1\r\nCodec ID/Info : Advanced Video Coding\r\nDuration : 1 h 0 min\r\nBit rate mode : Variable\r\nBit rate : 974 kb/s\r\nMaximum bit rate : 1 000 kb/s\r\nWidth : 720 pixels\r\nHeight : 404 pixels\r\nDisplay aspect ratio : 16:9\r\nOriginal display aspect ratio : 16:9\r\nFrame rate mode : Constant\r\nFrame rate : 25.000 FPS\r\nStandard : PAL\r\nColor space : YUV\r\nChroma subsampling : 4:2:0\r\nBit depth : 8 bits\r\nScan type : Progressive\r\nBits/(Pixel*Frame) : 0.134\r\nStream size : 419 MiB (88%)\r\nWriting library : x264 core 112\r\nColor range : Limited\r\nColor primaries : BT.601 PAL\r\nTransfer characteristics : BT.470 System B, BT.470 System G\r\nMatrix coefficients : BT.601\r\n\r\nAudio\r\nID : 1\r\nFormat : AAC\r\nFormat/Info : Advanced Audio Codec\r\nFormat profile : LC\r\nCodec ID : 40\r\nDuration : 1 h 0 min\r\nBit rate mode : Variable\r\nBit rate : 128 kb/s\r\nMaximum bit rate : 576 kb/s\r\nChannel(s) : 2 channels\r\nChannel positions : Front: L R\r\nSampling rate : 48.0 kHz\r\nFrame rate : 46.875 FPS (1024 spf)\r\nCompression mode : Lossy\r\nStream size : 55.1 MiB (12%)","torrent":{"xt":"urn:btih:f254ea087c9e2a6a55852f1db846b69d6e19c164","amp;dn":"The+Recruit+-+S02E10","amp;tr":["udp%3A%2F%2Ftracker.leechers-paradise.org%3A6969","udp%3A%2F%2Fzer0day.ch%3A1337","udp%3A%2F%2Fopen.demonii.com%3A1337","udp%3A%2F%2Ftracker.coppersurfer.tk%3A6969","udp%3A%2F%2Fexodus.desync.com%3A6969"],"infoHash":"f254ea087c9e2a6a55852f1db846b69d6e19c164","infoHashBuffer":{"type":"Buffer","data":[242,84,234,8,124,158,42,106,85,133,47,29,184,70,182,157,110,25,193,100]},"announce":[],"urlList":[]}}